<svg version="1.1" id="Layer_1" xmlns="http://www.w3.org/2000/svg" xmlns:xlink="http://www.w3.org/1999/xlink" x="0px" y="0px"
	 width="100%" viewBox="0 0 500 500" enable-background="new 0 0 500 500" xml:space="preserve">
<path fill="#020200" opacity="1.000000" stroke="none" 
	d="
M278.000000,501.000000 
	C185.333359,501.000000 93.166710,501.000000 1.000049,501.000000 
	C1.000033,334.333405 1.000033,167.666794 1.000016,1.000139 
	C167.666565,1.000093 334.333130,1.000093 500.999756,1.000046 
	C500.999847,167.666519 500.999847,334.333038 500.999939,500.999786 
	C426.833344,501.000000 352.666656,501.000000 278.000000,501.000000 
M179.545486,338.128540 
	C179.671585,338.450836 179.797668,338.773163 180.841904,339.349609 
	C197.868118,339.375916 214.894318,339.402222 232.828796,339.720001 
	C240.862930,339.732941 248.897049,339.745911 257.857483,339.962402 
	C271.750946,339.962402 285.644379,339.962402 299.537842,339.962402 
	C299.531189,339.349213 299.524536,338.736053 299.517883,338.122864 
	C285.331848,338.122864 271.145844,338.122864 256.031036,338.041626 
	C248.011124,338.088104 239.991196,338.134583 231.044159,338.064819 
	C214.048203,338.080200 197.052246,338.095581 179.545486,338.128540 
M225.001099,187.541214 
	C211.913956,198.759445 198.826828,209.977661 185.711792,221.219803 
	C188.339706,225.015854 190.083664,222.822083 191.763489,221.392059 
	C200.009048,214.372849 208.217590,207.310150 216.444427,200.268921 
	C228.066833,190.321518 239.693832,180.379440 251.556992,170.231369 
	C258.350861,176.138855 264.784180,181.917572 271.440643,187.426697 
	C273.977356,189.526169 274.994019,191.716095 274.977844,195.056595 
	C274.842926,222.883575 274.904510,250.711533 274.907227,278.539185 
	C274.907349,279.705597 274.638306,280.964142 274.991333,282.012543 
	C275.346405,283.067047 276.322540,283.912445 277.026489,284.849457 
	C277.695435,283.859253 278.617218,282.948639 278.961151,281.856140 
	C279.295410,280.794342 279.038879,279.546021 279.038879,278.379608 
	C279.038940,252.718170 279.029572,227.056717 279.057281,201.395309 
	C279.059265,199.562546 279.332825,197.730072 279.561432,194.885422 
	C281.917664,196.795303 283.332397,197.875031 284.673279,199.039825 
	C293.225403,206.468781 301.716370,213.969513 310.355865,221.295166 
	C311.517883,222.280472 313.401489,222.414764 314.950989,222.943130 
	C314.271637,221.354248 314.013550,219.294449 312.846619,218.250549 
	C303.037872,209.475983 293.140137,200.795792 283.088715,192.300766 
	C280.189850,189.850800 278.689087,187.373276 278.940826,183.430511 
	C279.301117,177.788040 279.171509,172.099777 278.940247,166.443787 
	C278.879181,164.950165 277.676758,163.503204 276.998413,162.034836 
	C276.298340,163.463821 275.054169,164.870422 274.994293,166.325760 
	C274.759491,172.032120 274.898254,177.753845 274.898254,185.005478 
	C267.826996,178.874451 261.796295,173.998520 256.204010,168.663055 
	C252.909210,165.519547 250.591934,165.193924 247.083511,168.449677 
	C240.128464,174.903839 232.740509,180.891525 225.001099,187.541214 
M249.005554,290.497864 
	C249.008774,295.326996 248.900436,300.160889 249.107224,304.981293 
	C249.149765,305.972687 250.369278,306.913544 251.046280,307.877716 
	C251.725098,306.903168 252.564087,305.997864 253.025955,304.929535 
	C253.329773,304.226807 253.092819,303.288910 253.092880,302.456329 
	C253.095352,267.653381 253.098053,232.850418 253.095520,198.047455 
	C253.095428,196.883072 253.278076,195.641617 252.931915,194.580856 
	C252.692856,193.848282 251.683640,192.895874 251.027390,192.902603 
	C250.365845,192.909378 249.332779,193.880234 249.144699,194.605576 
	C248.820053,195.857651 249.007645,197.246643 249.007507,198.578186 
	C249.004440,228.885086 249.005081,259.191986 249.005554,290.497864 
M324.465942,339.226196 
	C323.581299,339.630219 322.696655,340.034210 321.811981,340.438202 
	C322.135010,340.830811 322.458038,341.223389 322.781067,341.615997 
	C327.373688,341.615997 331.966309,341.615997 336.173798,341.615997 
	C332.087341,336.396362 328.053009,331.243256 323.791443,325.799957 
	C327.576416,320.856262 331.011902,316.369019 334.350037,312.008911 
	C330.968140,312.008911 327.079559,312.008911 323.190979,312.008911 
	C323.120911,312.311737 323.050842,312.614563 322.980774,312.917389 
	C324.008881,313.614929 325.036957,314.312469 326.208313,315.107208 
	C324.709656,317.469971 323.357422,319.601837 321.467987,322.580658 
	C320.549683,318.267761 314.748535,316.710754 318.697144,312.172485 
	C314.192719,312.172485 309.865051,312.172485 306.495880,312.172485 
	C309.509644,316.383362 312.602936,320.452332 315.341522,324.747437 
	C315.882874,325.596436 315.483856,327.619385 314.793854,328.580933 
	C311.606903,333.021942 308.163971,337.279205 304.846954,341.558228 
	C308.598724,341.558228 312.789764,341.558228 318.353729,341.558228 
	C316.165436,339.976501 315.107941,339.212128 313.795135,338.263245 
	C315.475708,335.709808 317.158020,333.153748 319.119019,330.174225 
	C321.263672,333.329376 323.014740,335.905457 324.465942,339.226196 
M223.897537,269.222107 
	C223.905823,270.887970 223.654282,272.613159 224.016129,274.198303 
	C224.247162,275.210266 225.385910,276.015076 226.117676,276.912750 
	C226.749130,276.061523 227.555206,275.283783 227.954712,274.334900 
	C228.253891,273.624298 228.037018,272.693237 228.037048,271.860321 
	C228.038071,252.368515 228.089523,232.876297 227.936462,213.385696 
	C227.924408,211.850571 226.487289,210.326660 225.712463,208.797531 
	C225.110123,210.300369 223.993774,211.799774 223.983658,213.306580 
	C223.860580,231.631439 223.900269,249.957413 223.897537,269.222107 
M267.955475,322.295349 
	C267.955475,324.125885 267.955475,325.956421 267.955475,328.249603 
	C261.257538,320.034363 261.257538,320.034363 257.625397,320.706665 
	C257.625397,325.453674 257.625397,330.126617 257.625397,334.829834 
	C259.154633,334.829834 260.911438,334.829834 262.283112,334.829834 
	C261.971649,332.884979 261.678711,331.055908 261.287720,328.614380 
	C265.796967,330.184174 265.338470,336.815186 270.832184,334.785187 
	C271.090729,329.931702 271.345398,325.151245 271.644440,319.537842 
	C270.086395,320.374634 268.696289,321.121246 267.955475,322.295349 
M181.567078,320.240540 
	C181.567078,325.111542 181.567078,329.982574 181.567078,334.870575 
	C183.088242,334.870575 185.380127,334.870575 187.105743,334.870575 
	C186.665222,332.993256 186.231888,331.146667 185.746307,329.077393 
	C187.939682,329.077393 189.379211,329.077393 191.293198,329.077393 
	C190.964859,331.213135 190.675323,333.096375 190.406525,334.844727 
	C192.517868,334.844727 194.629776,334.844727 196.108444,334.844727 
	C196.108444,329.948273 196.108444,325.244965 196.108444,320.214081 
	C191.703583,320.214081 187.057068,320.214081 181.567078,320.240540 
M290.155975,328.964844 
	C290.198029,321.180481 285.819550,318.666748 276.255463,320.741974 
	C276.255463,325.483124 276.255463,330.146423 276.255463,334.984802 
	C280.912659,334.470459 287.257507,337.088501 290.155975,328.964844 
M251.445724,328.012817 
	C252.116974,325.596039 252.788239,323.179260 253.538544,320.477844 
	C249.170639,320.477844 245.468964,320.477844 242.176147,320.477844 
	C242.176147,325.478394 242.176147,330.200684 242.176147,334.757416 
	C245.664474,334.757416 249.420502,334.757416 253.580704,334.757416 
	C253.400955,333.004089 253.256088,331.590942 253.144577,330.503265 
	C250.822189,331.388611 249.173904,332.016937 247.525635,332.645294 
	C247.343109,331.452240 247.160583,330.259186 246.972672,329.031006 
	C248.594666,328.889771 249.748032,328.789368 251.445724,328.012817 
M208.996933,332.917786 
	C209.034088,333.613800 209.035217,334.912811 209.113678,334.917511 
	C211.009338,335.030792 212.913269,335.005798 214.652237,335.005798 
	C212.790710,330.595398 211.124130,326.498016 209.312286,322.465912 
	C208.894165,321.535431 207.978638,320.828461 207.292023,320.018616 
	C206.443802,320.853210 205.273834,321.538116 204.803879,322.548615 
	C202.914673,326.610657 201.242065,330.773438 199.496536,334.882202 
	C201.131500,334.882202 202.757004,334.882202 204.403427,334.882202 
	C204.242416,333.762543 204.104279,332.801910 203.966156,331.841309 
	C205.601868,331.896637 207.237595,331.951965 208.996933,332.917786 
M291.598755,334.067688 
	C293.367828,334.470673 295.136932,334.873627 296.431396,335.168488 
	C296.573853,333.444977 296.403564,331.750427 296.782684,331.617004 
	C297.953583,331.204956 299.619904,330.924011 300.540375,331.490875 
	C301.245300,331.924988 301.110992,333.721954 301.331055,334.818481 
	C303.429413,334.818481 305.501251,334.818481 307.115753,334.818481 
	C305.401123,330.749481 303.772308,326.674866 301.945038,322.691254 
	C301.473145,321.662476 300.378235,320.919403 299.569519,320.045105 
	C298.736084,320.951813 297.637299,321.728485 297.117615,322.788910 
	C295.374115,326.346466 293.837189,330.005310 291.598755,334.067688 
M198.389450,250.022598 
	C198.695099,251.796738 199.000748,253.570877 199.306396,255.345016 
	C199.879837,255.323654 200.453278,255.302292 201.026733,255.280945 
	C203.845917,248.572647 201.633621,241.372650 202.028046,234.436615 
	C202.080276,233.518082 200.736588,232.520187 200.039383,231.559036 
	C199.488998,231.725784 198.938614,231.892548 198.388229,232.059311 
	C198.388229,237.750183 198.388229,243.441055 198.389450,250.022598 
M303.222473,232.511429 
	C302.281464,233.220154 300.551758,233.899551 300.524109,234.642242 
	C300.301605,240.624069 300.337006,246.619141 300.464264,252.606552 
	C300.484467,253.556625 301.359650,254.488495 301.839539,255.428787 
	C305.528107,247.958298 303.952332,240.389694 303.222473,232.511429 
M228.465317,323.206360 
	C228.276352,318.936340 224.948700,319.890167 222.630707,320.088287 
	C218.568893,320.435425 216.552185,323.339478 216.187897,327.141296 
	C215.839859,330.773315 217.336578,333.784454 220.990799,334.925995 
	C223.982361,335.860474 226.828506,335.361267 229.086960,332.133606 
	C221.680145,332.635162 219.062790,330.255127 220.803055,325.075562 
	C221.139511,324.074158 221.999985,323.248779 222.618759,322.342194 
	C223.475754,322.930237 224.596344,323.340332 225.137436,324.141693 
	C226.452072,326.088684 227.411087,326.625641 228.465317,323.206360 
M236.991913,324.205444 
	C237.292633,322.930786 237.593369,321.656097 237.887589,320.408997 
	C235.650040,320.408997 233.690231,320.408997 232.206177,320.408997 
	C232.206177,325.344330 232.206177,330.080902 232.206177,334.875549 
	C233.997757,334.875549 236.291122,334.875549 237.500732,334.875549 
	C237.327881,331.511932 237.161362,328.271637 236.991913,324.205444 
z"/>
<path fill="#E7E7E6" opacity="1.000000" stroke="none" 
	d="
M225.266296,187.306610 
	C232.740509,180.891525 240.128464,174.903839 247.083511,168.449677 
	C250.591934,165.193924 252.909210,165.519547 256.204010,168.663055 
	C261.796295,173.998520 267.826996,178.874451 274.898254,185.005478 
	C274.898254,177.753845 274.759491,172.032120 274.994293,166.325760 
	C275.054169,164.870422 276.298340,163.463821 276.998413,162.034836 
	C277.676758,163.503204 278.879181,164.950165 278.940247,166.443787 
	C279.171509,172.099777 279.301117,177.788040 278.940826,183.430511 
	C278.689087,187.373276 280.189850,189.850800 283.088715,192.300766 
	C293.140137,200.795792 303.037872,209.475983 312.846619,218.250549 
	C314.013550,219.294449 314.271637,221.354248 314.950989,222.943146 
	C313.401489,222.414764 311.517883,222.280472 310.355865,221.295166 
	C301.716370,213.969513 293.225403,206.468781 284.673279,199.039825 
	C283.332397,197.875031 281.917664,196.795303 279.561432,194.885422 
	C279.332825,197.730072 279.059265,199.562546 279.057281,201.395309 
	C279.029572,227.056717 279.038940,252.718170 279.038879,278.379608 
	C279.038879,279.546021 279.295410,280.794342 278.961151,281.856140 
	C278.617218,282.948639 277.695435,283.859253 277.026489,284.849457 
	C276.322540,283.912445 275.346405,283.067047 274.991333,282.012543 
	C274.638306,280.964142 274.907349,279.705597 274.907227,278.539185 
	C274.904510,250.711533 274.842926,222.883575 274.977844,195.056595 
	C274.994019,191.716095 273.977356,189.526169 271.440643,187.426697 
	C264.784180,181.917572 258.350861,176.138855 251.556992,170.231369 
	C239.693832,180.379440 228.066833,190.321518 216.444427,200.268921 
	C208.217590,207.310150 200.009048,214.372849 191.763489,221.392059 
	C190.083664,222.822083 188.339706,225.015854 185.711792,221.219803 
	C198.826828,209.977661 211.913956,198.759445 225.266296,187.306610 
z"/>
<path fill="#EBEBE9" opacity="1.000000" stroke="none" 
	d="
M249.005280,289.998352 
	C249.005081,259.191986 249.004440,228.885086 249.007507,198.578186 
	C249.007645,197.246643 248.820053,195.857651 249.144699,194.605576 
	C249.332779,193.880234 250.365845,192.909378 251.027390,192.902603 
	C251.683640,192.895874 252.692856,193.848282 252.931915,194.580856 
	C253.278076,195.641617 253.095428,196.883072 253.095520,198.047455 
	C253.098053,232.850418 253.095352,267.653381 253.092880,302.456329 
	C253.092819,303.288910 253.329773,304.226807 253.025955,304.929535 
	C252.564087,305.997864 251.725098,306.903168 251.046295,307.877716 
	C250.369278,306.913544 249.149765,305.972687 249.107224,304.981293 
	C248.900436,300.160889 249.008774,295.326996 249.005280,289.998352 
z"/>
<path fill="#F2F2F1" opacity="1.000000" stroke="none" 
	d="
M324.615875,338.853882 
	C323.014740,335.905457 321.263672,333.329376 319.119019,330.174225 
	C317.158020,333.153748 315.475708,335.709808 313.795135,338.263245 
	C315.107941,339.212128 316.165436,339.976501 318.353729,341.558228 
	C312.789764,341.558228 308.598724,341.558228 304.846954,341.558228 
	C308.163971,337.279205 311.606903,333.021942 314.793854,328.580933 
	C315.483856,327.619385 315.882874,325.596436 315.341522,324.747437 
	C312.602936,320.452332 309.509644,316.383362 306.495880,312.172485 
	C309.865051,312.172485 314.192719,312.172485 318.697144,312.172485 
	C314.748535,316.710754 320.549683,318.267761 321.467987,322.580658 
	C323.357422,319.601837 324.709656,317.469971 326.208313,315.107208 
	C325.036957,314.312469 324.008881,313.614929 322.980774,312.917389 
	C323.050842,312.614563 323.120911,312.311737 323.190979,312.008911 
	C327.079559,312.008911 330.968140,312.008911 334.350037,312.008911 
	C331.011902,316.369019 327.576416,320.856262 323.791443,325.799957 
	C328.053009,331.243256 332.087341,336.396362 336.173798,341.615997 
	C331.966309,341.615997 327.373688,341.615997 322.781067,341.615997 
	C322.458038,341.223389 322.135010,340.830811 321.811981,340.438202 
	C322.696655,340.034210 323.581299,339.630219 324.615875,338.853882 
z"/>
<path fill="#E7E7E6" opacity="1.000000" stroke="none" 
	d="
M223.897614,268.752594 
	C223.900269,249.957413 223.860580,231.631439 223.983658,213.306580 
	C223.993774,211.799774 225.110123,210.300369 225.712463,208.797531 
	C226.487289,210.326660 227.924408,211.850571 227.936462,213.385696 
	C228.089523,232.876297 228.038071,252.368515 228.037048,271.860321 
	C228.037018,272.693237 228.253891,273.624298 227.954712,274.334900 
	C227.555206,275.283783 226.749130,276.061523 226.117676,276.912750 
	C225.385910,276.015076 224.247162,275.210266 224.016129,274.198303 
	C223.654282,272.613159 223.905823,270.887970 223.897614,268.752594 
z"/>
<path fill="#E2E2E2" opacity="1.000000" stroke="none" 
	d="
M267.630859,322.081604 
	C268.696289,321.121246 270.086395,320.374634 271.644440,319.537842 
	C271.345398,325.151245 271.090729,329.931702 270.832184,334.785187 
	C265.338470,336.815186 265.796967,330.184174 261.287720,328.614380 
	C261.678711,331.055908 261.971649,332.884979 262.283112,334.829834 
	C260.911438,334.829834 259.154633,334.829834 257.625397,334.829834 
	C257.625397,330.126617 257.625397,325.453674 257.625397,320.706665 
	C261.257538,320.034363 261.257538,320.034363 267.955475,328.249603 
	C267.955475,325.956421 267.955475,324.125885 267.630859,322.081604 
z"/>
<path fill="#EBEBE9" opacity="1.000000" stroke="none" 
	d="
M181.988800,320.227295 
	C187.057068,320.214081 191.703583,320.214081 196.108444,320.214081 
	C196.108444,325.244965 196.108444,329.948273 196.108444,334.844727 
	C194.629776,334.844727 192.517868,334.844727 190.406525,334.844727 
	C190.675323,333.096375 190.964859,331.213135 191.293198,329.077393 
	C189.379211,329.077393 187.939682,329.077393 185.746307,329.077393 
	C186.231888,331.146667 186.665222,332.993256 187.105743,334.870575 
	C185.380127,334.870575 183.088242,334.870575 181.567078,334.870575 
	C181.567078,329.982574 181.567078,325.111542 181.988800,320.227295 
M186.006882,323.496307 
	C185.483139,327.731750 188.280594,326.713379 191.540390,326.358795 
	C190.847702,324.317902 190.231415,322.502167 189.615143,320.686401 
	C188.443405,321.271484 187.271667,321.856567 186.006882,323.496307 
z"/>
<path fill="#F2F2F1" opacity="1.000000" stroke="none" 
	d="
M290.108368,329.331299 
	C287.257507,337.088501 280.912659,334.470459 276.255463,334.984802 
	C276.255463,330.146423 276.255463,325.483124 276.255463,320.741974 
	C285.819550,318.666748 290.198029,321.180481 290.108368,329.331299 
M283.804504,332.527466 
	C284.369934,329.857269 285.265228,327.193237 285.315002,324.513458 
	C285.331543,323.621735 283.179779,322.689758 280.964233,320.945648 
	C280.964233,325.433197 280.833984,328.227356 281.058289,330.992767 
	C281.112549,331.661682 282.337738,332.235596 283.804504,332.527466 
z"/>
<path fill="#E7E7E6" opacity="1.000000" stroke="none" 
	d="
M251.173553,328.350891 
	C249.748032,328.789368 248.594666,328.889771 246.972672,329.031006 
	C247.160583,330.259186 247.343109,331.452240 247.525635,332.645294 
	C249.173904,332.016937 250.822189,331.388611 253.144577,330.503265 
	C253.256088,331.590942 253.400955,333.004089 253.580704,334.757416 
	C249.420502,334.757416 245.664474,334.757416 242.176147,334.757416 
	C242.176147,330.200684 242.176147,325.478394 242.176147,320.477844 
	C245.468964,320.477844 249.170639,320.477844 253.538544,320.477844 
	C252.788239,323.179260 252.116974,325.596039 251.173553,328.350891 
M249.968582,326.386169 
	C252.488449,323.015442 249.909042,322.917847 245.902771,322.184296 
	C247.353317,324.355713 248.104004,325.479462 249.968582,326.386169 
z"/>
<path fill="#EBEBE9" opacity="1.000000" stroke="none" 
	d="
M208.935120,332.462524 
	C207.237595,331.951965 205.601868,331.896637 203.966156,331.841309 
	C204.104279,332.801910 204.242416,333.762543 204.403427,334.882202 
	C202.757004,334.882202 201.131500,334.882202 199.496536,334.882202 
	C201.242065,330.773438 202.914673,326.610657 204.803879,322.548615 
	C205.273834,321.538116 206.443802,320.853210 207.292023,320.018616 
	C207.978638,320.828461 208.894165,321.535431 209.312286,322.465912 
	C211.124130,326.498016 212.790710,330.595398 214.652237,335.005798 
	C212.913269,335.005798 211.009338,335.030792 209.113678,334.917511 
	C209.035217,334.912811 209.034088,333.613800 208.935120,332.462524 
z"/>
<path fill="#EBEBE9" opacity="1.000000" stroke="none" 
	d="
M291.909973,333.846497 
	C293.837189,330.005310 295.374115,326.346466 297.117615,322.788910 
	C297.637299,321.728485 298.736084,320.951813 299.569519,320.045105 
	C300.378235,320.919403 301.473145,321.662476 301.945038,322.691254 
	C303.772308,326.674866 305.401123,330.749481 307.115753,334.818481 
	C305.501251,334.818481 303.429413,334.818481 301.331055,334.818481 
	C301.110992,333.721954 301.245300,331.924988 300.540375,331.490875 
	C299.619904,330.924011 297.953583,331.204956 296.782684,331.617004 
	C296.403564,331.750427 296.573853,333.444977 296.431396,335.168488 
	C295.136932,334.873627 293.367828,334.470673 291.909973,333.846497 
z"/>
<path fill="#DADAD8" opacity="1.000000" stroke="none" 
	d="
M198.388840,249.577271 
	C198.388229,243.441055 198.388229,237.750183 198.388229,232.059311 
	C198.938614,231.892548 199.488998,231.725784 200.039383,231.559036 
	C200.736588,232.520187 202.080276,233.518082 202.028046,234.436615 
	C201.633621,241.372650 203.845917,248.572647 201.026733,255.280945 
	C200.453278,255.302292 199.879837,255.323654 199.306396,255.345016 
	C199.000748,253.570877 198.695099,251.796738 198.388840,249.577271 
z"/>
<path fill="#DADAD8" opacity="1.000000" stroke="none" 
	d="
M303.470886,232.710022 
	C303.952332,240.389694 305.528107,247.958298 301.839539,255.428787 
	C301.359650,254.488495 300.484467,253.556625 300.464264,252.606552 
	C300.337006,246.619141 300.301605,240.624069 300.524109,234.642242 
	C300.551758,233.899551 302.281464,233.220154 303.470886,232.710022 
z"/>
<path fill="#E2E2E2" opacity="1.000000" stroke="none" 
	d="
M228.386505,323.571838 
	C227.411087,326.625641 226.452072,326.088684 225.137436,324.141693 
	C224.596344,323.340332 223.475754,322.930237 222.618744,322.342194 
	C221.999985,323.248779 221.139511,324.074158 220.803055,325.075562 
	C219.062790,330.255127 221.680145,332.635162 229.086960,332.133606 
	C226.828506,335.361267 223.982361,335.860474 220.990799,334.925995 
	C217.336578,333.784454 215.839859,330.773315 216.187897,327.141296 
	C216.552185,323.339478 218.568893,320.435425 222.630707,320.088287 
	C224.948700,319.890167 228.276352,318.936340 228.386505,323.571838 
z"/>
<path fill="#71716F" opacity="1.000000" stroke="none" 
	d="
M256.959808,338.122864 
	C271.145844,338.122864 285.331848,338.122864 299.517883,338.122864 
	C299.524536,338.736053 299.531189,339.349213 299.537842,339.962402 
	C285.644379,339.962402 271.750946,339.962402 257.404053,339.587860 
	C256.953674,338.849823 256.956726,338.486359 256.959808,338.122864 
z"/>
<path fill="#A8A8A6" opacity="1.000000" stroke="none" 
	d="
M231.920532,339.428497 
	C214.894318,339.402222 197.868118,339.375916 180.416565,338.976379 
	C179.991226,338.603180 180.056290,338.110962 180.056290,338.110962 
	C197.052246,338.095581 214.048203,338.080200 231.494537,338.330994 
	C231.898666,338.873199 231.890533,339.150299 231.920532,339.428497 
z"/>
<path fill="#EBEBE9" opacity="1.000000" stroke="none" 
	d="
M236.993378,324.618408 
	C237.161362,328.271637 237.327881,331.511932 237.500732,334.875549 
	C236.291122,334.875549 233.997757,334.875549 232.206177,334.875549 
	C232.206177,330.080902 232.206177,325.344330 232.206177,320.408997 
	C233.690231,320.408997 235.650040,320.408997 237.887589,320.408997 
	C237.593369,321.656097 237.292633,322.930786 236.993378,324.618408 
z"/>
<path fill="#949492" opacity="1.000000" stroke="none" 
	d="
M232.374664,339.574249 
	C231.890533,339.150299 231.898666,338.873199 231.958099,338.389130 
	C239.991196,338.134583 248.011124,338.088104 256.495422,338.082245 
	C256.956726,338.486359 256.953674,338.849823 256.940918,339.486084 
	C248.897049,339.745911 240.862930,339.732941 232.374664,339.574249 
z"/>
<path fill="#71716F" opacity="1.000000" stroke="none" 
	d="
M179.800888,338.119751 
	C180.056290,338.110962 179.991226,338.603180 179.957489,338.849304 
	C179.797668,338.773163 179.671585,338.450836 179.800888,338.119751 
z"/>
<path fill="#020200" opacity="1.000000" stroke="none" 
	d="
M186.053406,322.968994 
	C187.271667,321.856567 188.443405,321.271484 189.615143,320.686401 
	C190.231415,322.502167 190.847702,324.317902 191.540390,326.358795 
	C188.280594,326.713379 185.483139,327.731750 186.053406,322.968994 
z"/>
<path fill="#0F0F0F" opacity="1.000000" stroke="none" 
	d="
M283.414490,332.690338 
	C282.337738,332.235596 281.112549,331.661682 281.058289,330.992767 
	C280.833984,328.227356 280.964233,325.433197 280.964233,320.945648 
	C283.179779,322.689758 285.331543,323.621735 285.315002,324.513458 
	C285.265228,327.193237 284.369934,329.857269 283.414490,332.690338 
z"/>
<path fill="#020200" opacity="1.000000" stroke="none" 
	d="
M249.411652,326.494690 
	C248.104004,325.479462 247.353317,324.355713 245.902771,322.184296 
	C249.909042,322.917847 252.488449,323.015442 249.411652,326.494690 
z"/>
</svg>